<svg xmlns="http://www.w3.org/2000/svg" viewBox="0 0 392.49 392.49"><defs><style>.cls-1{fill:#fff;}</style></defs><title>Ativo 39</title><g id="Camada_2" data-name="Camada 2"><g id="Camada_1-2" data-name="Camada 1"><path class="cls-1" d="M196.25,0C87.86,0,0,87.86,0,196.25S87.86,392.49,196.25,392.49s196.24-87.86,196.24-196.24S304.63,0,196.25,0Zm15.9,294.07h-32V262h32Zm.38-69.3v20.14H179.16c.7-10,.38-20.23,2.4-30s9.17-16.82,18.74-20.73c1.73-.71,3.49-1.32,5.27-1.88,18.31-5.7,26.86-20.82,21.57-38.16a32.27,32.27,0,0,0-40.41-21.55c-13.47,4-20.55,13.26-23.6,31.15H131.36c-1.68-23.14,15.41-56.33,51.88-64,32.44-6.79,65,13,75.21,44.68C267.27,171.86,256.09,212.17,212.53,224.77Z"/></g></g></svg>