<svg xmlns="http://www.w3.org/2000/svg" viewBox="0 0 652.68 1839.52"><title>Ativo 48</title><g id="Camada_2" data-name="Camada 2"><g id="Camada_1-2" data-name="Camada 1"><rect x="297.34" y="507.8" width="58.92" height="77.26"/><path d="M591.18,656.34V441.9l17.48-20.82h0V330.13l42.57,12.15c1.06-3.08,2.35-8.42.46-14-1.08-3.17-3.57-7.54-16.28-14.9a131.4,131.4,0,0,0-26.75-11.7v-54l-17.51-20.87V160a160,160,0,0,0-160-160h-215A154.66,154.66,0,0,0,61.5,154.66v72.2L44,247.73v53a131.28,131.28,0,0,0-26.74,11.7C4.53,319.75,2,324.12,1,327.29c-1.89,5.57-.61,10.91.45,14L44,329.13v91.95h.11l17.4,20.74V656.34H74.34v55H53.25a17.89,17.89,0,0,0-17.89,17.88v1050.2a17.89,17.89,0,0,0,17.89,17.88H70.67v42.19H224.76v-42.19H419.21v42.19H573.3v-42.19h26.14a17.88,17.88,0,0,0,17.88-17.88V729.25a17.88,17.88,0,0,0-17.88-17.88H74.34v-10h499v-35h-499v-10H591.18ZM391,1745.37a12,12,0,0,1-12,12H273.72a12,12,0,0,1-12-12v-917a12,12,0,0,1,12-12H379a12,12,0,0,1,12,12ZM84.37,744.62H568.31c11.05,0,20,9.23,20,20.59V1768.44H577.73V765.21a9.59,9.59,0,0,0-9.42-9.75H84.37A9.6,9.6,0,0,0,75,765.21V1768.44H64.34V765.21C64.34,753.85,73.33,744.62,84.37,744.62Zm19.93-158.3c-7.37,2-20.18,4.37-27.66-2.44-6.15-5.6-6-14.93-6-18.35q.12-115.21.23-230.44l18.46,4q3,23.58,5.47,47.89A1878.86,1878.86,0,0,1,104.3,586.32ZM516.94,573a19,19,0,0,1-19,19H154.77a19,19,0,0,1-19-19v-53.2a19,19,0,0,1,19-19H497.91a19,19,0,0,1,19,19Zm21-150.58a1402,1402,0,0,0-426,1.38c-3.66-50.07-7.26-86.85-10.55-115.57-1.89-16.49-4.56-37.93,6.88-59.16,4.37-8.12,12.22-18.83,28.43-29.35C184.41,188.8,266,184.45,325.2,184c63.18-.5,112.28,3.35,162.22,21.84,19,7,39.22,16.58,51,36.86,10.82,18.59,9.14,36.87,6.88,66.5C543.47,333.49,540.75,371.7,538,422.45Zm8,163.87A1878.86,1878.86,0,0,1,555.5,387Q558,362.67,561,339.1l18.46-4q.11,115.21.23,230.44c0,3.42.18,12.75-6,18.35C566.21,590.69,553.4,588.35,546,586.32Z"/></g></g></svg>