<svg xmlns="http://www.w3.org/2000/svg" viewBox="0 0 351.44 367.42"><defs><style>.cls-1{fill:#fff;}</style></defs><title>Ativo 23</title><g id="Camada_2" data-name="Camada 2"><g id="Camada_1-2" data-name="Camada 1"><path class="cls-1" d="M351.26,118.46A46.35,46.35,0,0,0,320,75.12c-5.85-2-12.3-2.74-18.52-3-9.89-.49-19.81-.13-30.08-.13V.29c-1.22-.11-1.71-.18-2.21-.18-75.51,0-151-.25-226.53,0C25.06.22,12.28,9.48,4.16,25.07-.24,33.5,0,42.59,0,51.82q.21,132.48.07,265c0,30.24,20.41,50.59,50.76,50.59q111.29,0,222.55,0c10.31,0,20.62.15,30.93-.06,25.8-.52,46.83-21,46.94-46.77Q351.67,219.5,351.26,118.46Zm-306-46.59a27.91,27.91,0,0,1-.67-55.81q103.24-.06,206.49,0h4.26V72h-5.08Q147.76,71.91,45.25,71.87ZM263,303.48a23.94,23.94,0,1,1,24.16-24A24.05,24.05,0,0,1,263,303.48Z"/></g></g></svg>