<svg xmlns="http://www.w3.org/2000/svg" viewBox="0 0 261.07 273.66"><title>Ativo 37</title><g id="Camada_2" data-name="Camada 2"><g id="Camada_1-2" data-name="Camada 1"><path d="M177.6,175.47a124.13,124.13,0,0,0-21.83-16.3c-.57-.34-1.19-.6-1.74-1-6.28-4.13-12.1-4.77-19.77-1.76-21.29,8.33-42.93,7.3-64-1.63a9.13,9.13,0,0,0-8.39.07c-36.75,18-58,46.82-61.86,88H152.83a63.48,63.48,0,0,1,24.77-67.37Z"/><path d="M104.37,145.65a72.9,72.9,0,0,0,73-72.67c.09-40.06-32.78-73-72.79-73a72.83,72.83,0,0,0-.22,145.65Z"/><path d="M214.52,180.61h0a46.53,46.53,0,1,0,.05,93.05h0a46.53,46.53,0,0,0-.08-93.05Zm30.95,47a6.76,6.76,0,0,1-6.89,6.27c-2.28,0-4.55,0-6.86,0l-10.48,0c0,5.94,0,11.66,0,17.38a6.94,6.94,0,0,1-5.41,6.79,6.31,6.31,0,0,1-1.3.14,6.54,6.54,0,0,1-6.12-4,14.13,14.13,0,0,1-.7-4.73c-.08-5,0-10.07,0-15.54l-10.28,0c-2.28,0-4.54,0-6.8,0a6.79,6.79,0,0,1-7-6.1c-.28-3.87,2.1-7,6-7.28,4.83-.32,9.69-.2,14.53-.26h3.59c0-5.95-.09-11.48,0-17a6.88,6.88,0,0,1,5.86-7,7.26,7.26,0,0,1,.93-.06c3.81,0,6.65,2.84,6.71,7,.07,5.55,0,11.1,0,17.06h7.32l5.23,0a52,52,0,0,1,5.44.19A6.63,6.63,0,0,1,245.47,227.63Z"/></g></g></svg>