<svg xmlns="http://www.w3.org/2000/svg" viewBox="0 0 414.55 425.68"><title>Ativo 38</title><g id="Camada_2" data-name="Camada 2"><g id="Camada_1-2" data-name="Camada 1"><path d="M369.37,188.88c13.35-10.18,26.53-20.57,39.75-30.92,5.85-4.58,7-9.46,3.39-15.68q-20.6-35.81-41.34-71.54c-3.9-6.71-8.3-8.11-15.49-5.2-15.82,6.4-31.6,12.88-47.47,19.14a7.74,7.74,0,0,1-5.8-.1c-10.55-5.91-21-12.08-31.3-18.32a6.42,6.42,0,0,1-2.91-3.84c-2.51-16.73-4.84-33.49-7.15-50.26C259.82,3.26,256.27,0,247.28,0q-39.69,0-79.37,0c-10,0-13.2,2.94-14.56,12.91-2.22,16.27-4.5,32.54-7,48.76a8.11,8.11,0,0,1-3.61,4.92c-9.63,5.84-19.56,11.19-29.11,17.15-2.71,1.68-4.6,2.21-7.6,1-15.6-6.49-31.3-12.74-47-19C51.5,62.63,47.24,64,43.19,71q-20.34,35.1-40.57,70.26c-4.29,7.46-3.3,11.94,3.44,17.21,13.22,10.35,26.48,20.65,39.53,31.21a8.93,8.93,0,0,1,2.75,6.06c.27,11.27.13,22.55.13,33.82l1,.75c-1.42,2.08-2.44,4.65-4.32,6.16C32.22,246.85,19.08,257,6,267.28c-6.74,5.26-7.7,9.65-3.35,17.21q20.24,35.17,40.58,70.27c4.06,7,8.24,8.32,15.84,5.24,15.82-6.39,31.61-12.87,47.51-19.07a8.23,8.23,0,0,1,6.13.65q15.21,8.46,30.06,17.52a8.15,8.15,0,0,1,3.58,4.94c2.52,16.23,4.79,32.49,7,48.77,1.36,10,4.52,12.86,14.59,12.86h78.37c10.3,0,13.39-2.93,14.78-13.23q3.28-24.42,7-48.77a7.63,7.63,0,0,1,3.42-4.53c9.79-5.9,19.84-11.36,29.54-17.41,2.59-1.61,4.47-1.93,7.18-.82,15.77,6.5,31.6,12.88,47.42,19.28,7.1,2.87,11.57,1.36,15.46-5.35q20.44-35.32,40.81-70.71c4.08-7.09,3-11.72-3.47-16.81-12.83-10-25.59-20.15-38.51-30.09-3-2.29-4.31-4.57-4.14-8.61.45-10.59.34-21.22,0-31.82C365.76,193.31,366.52,191.05,369.37,188.88Zm-162.13,98.6c-41.1,0-75-34-74.69-75s34-74.46,74.85-74.3,74.52,33.83,74.45,74.72S248.15,287.45,207.24,287.48Z"/></g></g></svg>