<svg xmlns="http://www.w3.org/2000/svg" viewBox="0 0 268.31 196.82"><title>Ativo 17</title><g id="Camada_2" data-name="Camada 2"><g id="Camada_1-2" data-name="Camada 1"><path d="M134.16,0C60.18,0,0,60.18,0,134.16a133.48,133.48,0,0,0,11.81,55h19a116.28,116.28,0,0,1-12.49-37.82H43.56v-17H17v-.21a116.6,116.6,0,0,1,27.31-75.1l23,23,12-12L56.13,46.84a116.71,116.71,0,0,1,69.53-29.53v29h17v-29a116.6,116.6,0,0,1,65.72,26.27L191.9,60.05l12,12,16.78-16.78a116.69,116.69,0,0,1,30.6,78.87v.21H223.56v17H250a116.51,116.51,0,0,1-12.48,37.82H256.5a133.32,133.32,0,0,0,11.81-55C268.31,60.18,208.13,0,134.16,0Z"/><path d="M169.33,118.27,133.5,165.68A15.67,15.67,0,1,0,150,174.57L173,120.36A2.11,2.11,0,0,0,169.33,118.27Z"/></g></g></svg>