<svg xmlns="http://www.w3.org/2000/svg" viewBox="0 0 380.51 379.04"><defs><style>.cls-1{fill:#0089ff;}</style></defs><title>Ativo 21</title><g id="Camada_2" data-name="Camada 2"><g id="Camada_1-2" data-name="Camada 1"><polygon class="cls-1" points="119.18 204.08 145.29 204.08 132.16 165.3 119.18 204.08"/><path class="cls-1" d="M247.29,158.66q-12.82,0-20.44,8.3t-7.62,22.49q0,14,7.62,22.4t20.44,8.38q12.68,0,20.3-8.45t7.62-22.33q0-14-7.62-22.41T247.29,158.66Z"/><path class="cls-1" d="M368,187.63h0c-15.14-4.21-17.06-24.9-2.95-31.82h0c17.1-8.39,9.74-34.23-9.21-32.36h0c-15.64,1.54-24.9-17-14.24-28.6h0c12.91-14-3.28-35.44-20.27-26.85h0c-14,7.09-29.38-6.91-23.62-21.53h0c7-17.71-15.86-31.86-28.6-17.71h0c-10.52,11.68-29.89,4.17-29.8-11.54h0c.12-19-26.3-24-33.07-6.18h0c-5.59,14.68-26.36,14.68-31.95,0h0c-6.77-17.8-33.19-12.87-33.07,6.18h0c.09,15.71-19.28,23.22-29.8,11.54h0c-12.74-14.15-35.59,0-28.6,17.71h0C88.57,61.09,73.22,75.09,59.19,68h0C42.2,59.41,26,80.85,38.92,94.85h0c10.66,11.55,1.39,30.14-14.24,28.6h0c-18.95-1.87-26.31,24-9.21,32.36h0c14.11,6.92,12.19,27.61-3,31.82h0c-18.35,5.1-15.87,31.85,3.11,33.5h0c15.65,1.35,21.34,21.34,8.74,30.73h0C9.1,263.24,21.08,287.3,39.37,282h0c15.08-4.4,27.61,12.19,19.25,25.5h0c-10.12,16.13,9.74,34.23,24.86,22.66h0c12.49-9.55,30.15,1.39,27.17,16.82h0C107,365.66,132.1,375.37,142,359.12h0c8.2-13.42,28.62-9.6,31.41,5.87h0c3.39,18.74,30.26,18.74,33.65,0h0c2.79-15.47,23.21-19.29,31.41-5.87h0c9.92,16.25,35,6.54,31.37-12.16h0c-3-15.43,14.68-26.37,27.16-16.82h0c15.13,11.57,35-6.53,24.87-22.66h0c-8.36-13.31,4.17-29.9,19.25-25.5h0c18.29,5.32,30.27-18.74,15-30.12h0c-12.6-9.39-6.91-29.38,8.74-30.73h0C383.86,219.48,386.34,192.73,368,187.63ZM158.26,242.71,151.93,224H112.39l-6.34,18.71H79l38.33-105.93h29.88l38.33,105.93Zm136-25.27a51.5,51.5,0,0,1-19.61,19.39,57.36,57.36,0,0,1-54.7,0,51.91,51.91,0,0,1-19.77-19.39,57,57,0,0,1,0-55.91,52.09,52.09,0,0,1,19.77-19.32,57.5,57.5,0,0,1,54.77,0,51,51,0,0,1,19.62,19.32,57.8,57.8,0,0,1-.08,55.91Z"/></g></g></svg>