<svg xmlns="http://www.w3.org/2000/svg" viewBox="0 0 257.76 286.41"><title>Ativo 34</title><g id="Camada_2" data-name="Camada 2"><g id="Camada_1-2" data-name="Camada 1"><path d="M200.44,96.67H57.32a8.5,8.5,0,0,1,0-17H200.44a8.5,8.5,0,0,1,0,17Z"/><path d="M200.44,151.7H57.32a8.5,8.5,0,1,1,0-17H200.44a8.5,8.5,0,0,1,0,17Z"/><path d="M200.44,206.74H57.32a8.5,8.5,0,1,1,0-17H200.44a8.5,8.5,0,0,1,0,17Z"/><path d="M189.52,17a51.3,51.3,0,0,1,51.24,51.24V218.17a51.3,51.3,0,0,1-51.24,51.24H68.24A51.3,51.3,0,0,1,17,218.17V68.24A51.3,51.3,0,0,1,68.24,17H189.52m0-17H68.24A68.24,68.24,0,0,0,0,68.24V218.17a68.24,68.24,0,0,0,68.24,68.24H189.52a68.24,68.24,0,0,0,68.24-68.24V68.24A68.24,68.24,0,0,0,189.52,0Z"/></g></g></svg>