<svg xmlns="http://www.w3.org/2000/svg" viewBox="0 0 1335.7 1063.47"><title>Ativo 29</title><g id="Camada_2" data-name="Camada 2"><g id="Camada_1-2" data-name="Camada 1"><path d="M1335.7,547.38c-17,20.67-34,41.41-51.15,62-17,20.43-30.3,21.49-50.79,4.4q-276.42-230.5-552.86-461c-4-3.33-8.07-6.53-13.17-10.65q-31,25.8-61.94,51.5Q353.4,404.11,101,614.56C81.82,630.55,68,629.37,52,610.42q-20.6-24.42-41-49C-5,542.25-3.67,528.75,15.72,512.59Q236.63,328.53,457.58,144.52c48.09-40.06,96-80.39,144.37-120.08C635.83-3.34,673.6-6.84,713,10.9c10.47,4.72,19.72,12.65,28.7,20.11q90.24,75,180.14,150.49c2.88,2.41,6,4.5,10.58,7.89.31-5.94.71-10.06.71-14.19,0-46.08,0-92.17.06-138.25.06-25.67,8.79-34.38,34.45-34.43q71.08-.13,142.17,0c26.45,0,35.34,8.9,35.35,35.19q.06,158.46-.2,316.94c0,9.17,2.68,15.1,9.72,20.89q81.57,67.11,162.49,135c7.1,6,12.4,14.07,18.53,21.18Z"/><path d="M774.29,1062.5V746.17H561.7v317.25H545.84q-146.05,0-292.12,0c-42.4,0-63.19-20.85-63.2-63.25q0-189.1-.13-378.2c0-8.77,1.66-15.21,9.07-21.3q228.66-187.9,456.89-376.37c3.62-3,7.43-5.76,11.8-9.13,34.23,28.18,68.07,56,101.88,83.89Q952.64,449.57,1135.33,600c7,5.78,10.05,11.65,10,20.84-.27,128.24-.11,256.48-.24,384.72,0,34.85-22,57.62-56.78,57.73-101.72.35-203.45.13-305.17.09C780.67,1063.37,778.16,1062.89,774.29,1062.5Z"/></g></g></svg>