<svg xmlns="http://www.w3.org/2000/svg" viewBox="0 0 574.67 537.44"><title>Ativo 4</title><g id="Camada_2" data-name="Camada 2"><g id="Camada_1-2" data-name="Camada 1"><path d="M114.59,487.28c0-12.46.07-28-.09-43.64a7.83,7.83,0,0,0-2.18-5.13C106,432.77,101.6,425.82,98,418.22c-13.79-29-27.67-57.94-41.4-87-8.09-17.08-16-34.27-23.94-51.41Q16.74,245.69.87,211.53a9.59,9.59,0,0,1-.76-3.6c-.1-2.87.16-5.75,0-8.61-.76-11.18,4.52-20,12.26-26.86,5-4.4,11.83-6.73,18-9.72,10.85-5.29,21.81-10.36,32.72-15.52q38.13-18,76.27-36,46.26-21.76,92.56-43.43c17.23-8.1,34.39-16.32,51.64-24.36q35-16.3,70.07-32.42c6.89-3.18,13.69-6.56,20.71-9.41s14.16-1.19,21.25-.06c12.15,1.94,18.37,10.7,23.23,20.63q19.92,40.74,39.38,81.7c9.06,19,17.94,38,26.84,57.07q16.18,34.65,32.21,69.38c.88,1.91,1.86,2.37,3.85,2.54,9.12.82,18.27,1.55,27.31,3,9.89,1.54,24.36,15.2,24.59,27.85.28,15.42,1.56,30.82,1.61,46.24q.29,86.53,0,173.07c0,8.9-.12,18-1.9,26.66C570.28,521,562.06,528.54,552.18,534c-2.25,1.25-5.3,1.41-8,1.46-16.82.33-33.65.63-50.47.68q-131.07.39-262.13.68c-26.2.08-52.4.33-78.6.6-4.91,0-9.54-.34-14.09-2.6C128,529.41,119.11,522,116.26,509.71,114.82,503.51,115.23,496.88,114.59,487.28Zm14.1-127.17V365c0,44.7.13,89.4-.16,134.1a22.49,22.49,0,0,0,5.12,15c3.8,4.69,8.51,9.08,14.75,9.09q194.6.24,389.18.12c9.66,0,18.55-6.33,21-15.78a65.42,65.42,0,0,0,1.9-16.16c.15-42.32.09-84.65.1-127v-4.26Zm-.58-72.25H560.89c-.36-7.59,0-15-1.24-22.17-1.45-8.26-7.15-13.95-15.07-16.5-3.89-1.25-8.36-.94-12.57-1q-34.42-.39-68.86-.58-33.52-.15-67,0-92.67.22-185.34.55c-20.46.08-40.91.35-61.37.48-7.77.05-18,7.29-19.23,14.93C128.86,271.46,128.76,279.54,128.11,287.86ZM395.88,178c4.75-2.29,9.07-4.44,13.44-6.47,2.64-1.22,3.75-2.72,2.3-5.73q-5.83-12.09-11.26-24.37c-1.16-2.63-2.71-2.87-5-1.76-6.93,3.4-13.83,6.83-20.79,10.15-2.71,1.29-3.22,3-1.93,5.66,1.67,3.46,3,7.08,4.61,10.58.93,2.06.71,3.3-1.54,4.39-8.06,3.89-16,8.06-24.05,12-2.1,1-2.49,2.13-1.46,4.07,1.28,2.42,2.58,4.84,3.69,7.34.92,2.08,2.2,2.48,4.16,1.53,2.24-1.08,4.54-2,6.79-3.11,5.28-2.51,10.54-5.06,15.81-7.59.34-.17.68-.5,1-.48,1.54.11,3.08.31,4.62.48-.75,1.23-1.21,3-2.31,3.6-7.7,4-15.54,7.74-23.32,11.59-1,.51-2,1.13-3.05,1.72,4.15,5.88,9.61,8,15.72,6.81,9.7-1.83,18.15-6.62,26.84-10.88,2.56-1.25,2.82-3,1.68-5.5C399.85,187.6,398.05,183.11,395.88,178Zm13.39-64.5a16.34,16.34,0,0,0-4.39.77c-6.32,2.55-12.63,5.17-18.79,8.08-8.94,4.23-9.27,6.29-3.37,14.64,1.17,1.66,2.18,2.07,4,1.18,3.56-1.76,7.26-3.24,10.76-5.12,2.8-1.5,4.32-.46,5.54,2,1.75,3.56,3.71,7,5.27,10.66,1.17,2.74,2.85,2.65,5.06,1.68C418.21,145.25,423,143,428,141c3.47-1.34,3.94-3.51,2.35-6.37-2.89-5.2-5.82-10.39-9-15.41C418.87,115.34,415.05,113.47,409.27,113.5Zm-.33,80.61c9.28-4.7,17.95-9,26.48-13.47A13.47,13.47,0,0,0,441.28,163a2.79,2.79,0,0,0-1.08,0c-11.56,5.41-23.15,10.78-34.61,16.41-1,.48-1.75,3-1.36,4.17C405.34,187,407.1,190.14,408.94,194.11Zm-69.09-35.5a64,64,0,0,0,6.18-1.93c7.93-3.5,15.89-7,23.71-10.7,9-4.32,8.79-4.38,4.54-13.37-1.58-3.35-3.3-3.71-6.3-2.16-7.05,3.65-14.1,7.29-21.27,10.68-6.06,2.87-7.84,8.24-8.71,14.12C337.85,156.25,339.19,157.47,339.85,158.61Zm1.57,8.27c1.55,3.35,2.94,6.11,4.12,9,.93,2.27,2.24,2.66,4.37,1.6q9.18-4.58,18.45-9c1.9-.9,2.74-2.07,1.89-4.1-1.19-2.86-2.38-5.72-3.63-8.55-.85-1.93-2.15-1.93-3.92-1-6.17,3.2-12.44,6.22-18.6,9.42C343.08,164.76,342.38,165.9,341.42,166.88Zm98.36-11.43c-1.73-3.31-3.17-6-4.54-8.73-1.14-2.25-2.87-2.49-4.94-1.5-3.25,1.57-6.46,3.2-9.7,4.8-9,4.44-9,4.45-4.26,13.62,1.06,2.08,2.28,2.71,4.42,1.84,5.05-2.07,10.17-4,15.13-6.21C437.31,158.62,438.28,157,439.78,155.45Z"/><path d="M334.23,439.42v27.91H330q-90.78,0-181.55.08c-3.17,0-4.06-1-4-4,.19-6.86.15-13.73,0-20.59-.06-2.78.91-3.67,3.68-3.66q91.52.09,183,.07C332.07,439.19,332.93,439.32,334.23,439.42Z"/><path d="M272.22,392v27c-.9.08-1.87.23-2.83.23H149.56c-5,0-5,0-5-4.84,0-7.46,0-14.93,0-22.39Z"/><path d="M387.43,392.52V419H291c0-8.37,0-16.65.08-24.94,0-.61,1.11-1.64,1.81-1.73a67.83,67.83,0,0,1,8.88-.7c21.47-.06,42.93-.11,64.4,0C373,391.62,379.77,392.17,387.43,392.52Z"/></g></g></svg>