<svg xmlns="http://www.w3.org/2000/svg" viewBox="0 0 918.7 1020.34"><title>Ativo 33</title><g id="Camada_2" data-name="Camada 2"><g id="Camada_1-2" data-name="Camada 1"><path d="M751.94,772.66c-12.93-11.57-25.75-23.27-39.06-34.4-5.94-5-8.29-10.23-8.26-18.12.28-97,.17-194,.16-291V416.24c-72.54-9.48-129.49-43.12-168.06-104.45-38.81-61.73-43.82-127.94-20-199l-80-24.16c0-12,.17-24.73,0-37.43C436.29,21.59,415.18,0,387,0S337.6,22,337.43,51.32c-.08,12.69,0,25.38,0,38.71-11.12,2.54-20.84,4.43-30.38,7C165,134.86,69.63,258.9,69.26,406.64q-.41,157.17.08,314.35c0,7-1.83,11.87-7.22,16.42C48.32,749.05,35,761.25,21.5,773.25,1.66,790.89-4.82,813.76,3.61,836.31s28.11,35.32,55,35.57c18.06.16,36.12,0,54.19,0q300.69,0,601.38,0c27.58,0,47.54-12.67,56.19-35.42S772.53,791.09,751.94,772.66Z"/><path d="M727.56.6c-106.4-.24-194,85.47-194.23,190.05-.24,107.92,84.94,194.93,191.13,195.23,107.35.3,194.06-85.47,194.24-192.14C918.88,87.83,832.79.85,727.56.6Zm6.14,280c-23.34-.56-23.35-.08-23.35-23.83,0-35.4-.27-70.8.19-106.19.12-9-2-13.56-11.7-12a41,41,0,0,1-6.37,0c-18,0-20.21-2.42-17.12-20.06.42-2.39,3.3-6,5.35-6.21,21.37-2.3,42.8-4,65.27-6,.34,5,.81,8.79.81,12.57.05,49.56-.22,99.11.26,148.67C747.14,278,743.8,280.84,733.7,280.59Z"/><path d="M337.27,1007.36c41.06,20.72,81.33,16.49,117.74-11.68,27.19-21,40.3-49.68,41.2-84.58H277.45C280.28,955.09,299,988,337.27,1007.36Z"/></g></g></svg>