<svg xmlns="http://www.w3.org/2000/svg" viewBox="0 0 1280.35 1020.14"><title>Ativo 31</title><g id="Camada_2" data-name="Camada 2"><g id="Camada_1-2" data-name="Camada 1"><path d="M689.75,90.41c43.38,7.64,83.11,21.34,118.81,44.74,97,63.56,147.52,153.59,149,269.49,1.31,104.77.38,209.58.08,314.37,0,8.65,2.53,14.44,9.13,19.87,12.83,10.58,25,22,37.43,33,21.44,19.15,28,41.16,19.31,64.43S995,871.9,966.37,871.9q-214.11,0-428.24,0c-75.8,0-151.6.19-227.4-.08-40.19-.14-67.14-35.47-54.36-71.84,3.24-9.25,9.87-18,16.88-25.09,12.93-13.06,27-25,41.17-36.79,6.08-5,8.19-10.32,8.17-18.12q-.37-157.18-.17-314.37C322.43,252.8,428,123.46,577.79,93.17c9.77-2,14.1-5,12.91-15.47-1-9.09-.4-18.39-.16-27.59C591.3,21.2,612.43,0,640.22,0s49,21.36,49.49,50.21C689.94,63.25,689.75,76.3,689.75,90.41Z"/><path d="M1280.32,460.67c-3.22,101.65-36,194.34-100.87,275.4a98.48,98.48,0,0,1-6.91,8.06c-10.71,10.75-27.39,11.45-38.44,1.74-10.78-9.49-12.4-25.39-3.47-37.45,7.58-10.23,16-19.89,23.22-30.34,102.84-148.33,94.67-342-20.39-482.51-7.87-9.61-11.14-19.61-6.4-31.36,4.11-10.19,12.3-15.36,22.9-16.49,10.79-1.14,19.06,3.67,25.81,11.87q64.43,78.25,90,176.31C1276.2,376.22,1280.78,417.24,1280.32,460.67Z"/><path d="M156,178.58c-2,3.74-4.4,10.94-8.91,16.42C90,264.34,58.86,343.77,55.25,433.36c-4,98.23,24.94,186.29,85.46,263.89,2.61,3.35,5.44,6.53,8,9.91,10,13.11,8.82,29.24-2.85,39-11.94,10-29.66,9.09-39.69-4.08-15.84-20.8-32-41.67-45-64.24A455.15,455.15,0,0,1,100.28,165c3.3-4.13,6.64-8.44,10.76-11.66,8.85-6.93,18.83-7.67,29-2.89C150.34,155.3,155.07,163.89,156,178.58Z"/><path d="M1141.88,443.08c-.85,68-19.28,123-56.42,171.66-10.09,13.22-23.26,16.58-36.35,9.8-15.34-7.94-18.73-26.36-7.06-41.68,19.6-25.75,33.78-54.07,40.47-85.72q19.71-93.18-34.73-171.7c-2-2.91-4.23-5.68-6.31-8.55-10-13.76-8.46-29.45,3.67-38.66,12.68-9.63,29.95-8.07,39.07,6.38a681.21,681.21,0,0,1,40.15,72c6.85,14.47,10,31,13,46.89C1140.29,418.73,1141,434.38,1141.88,443.08Z"/><path d="M138.65,450.37c.56-61.29,19.23-115.88,55.83-164.41,7.14-9.48,16-15.13,28.21-13.07,21.29,3.6,29.66,26.18,16.05,44-21.64,28.37-36.53,59.68-42.66,94.93C185.45,473,199,528.49,235.24,578.6c13.2,18.26,13.23,33.63-.42,43.82-14.07,10.52-30.07,6.16-43.23-11.92C156.73,562.63,139.06,509.1,138.65,450.37Z"/><path d="M531.48,911.07H749.2C748.58,945.62,735.57,974,709,995c-35.35,28-74.71,32.61-115.74,13.87C555.06,991.43,530.7,952.27,531.48,911.07Z"/></g></g></svg>