<svg xmlns="http://www.w3.org/2000/svg" viewBox="0 0 774.03 1020.38"><title>Ativo 30</title><g id="Camada_2" data-name="Camada 2"><g id="Camada_1-2" data-name="Camada 1"><path d="M436.43,86.67c32,11.51,63.16,19,90.76,33.29,115.14,59.78,174.9,156,177.19,285.55,1.85,104.41.47,208.88.2,313.32,0,8.53,2.15,14.52,8.87,20,12.88,10.52,25,21.92,37.49,33,21.27,18.89,28.06,41.37,19.48,64.48s-28.74,35.62-57.13,35.62H118.21c-20.2,0-40.39.15-60.58,0-25.89-.23-45.77-13.42-54-35.48-8.47-22.76-2-45.55,17.72-63.06,13-11.5,25.7-23.35,39.06-34.41,6.57-5.44,9.17-11.23,9.14-19.88-.3-103.38-.06-206.76-.21-310.14C69.13,252.23,173.19,124,326.62,92.73c8.74-1.78,11.84-4.8,11.12-13.69-.83-10.19-.45-20.52-.12-30.78.87-27,21.71-47.78,48.12-48.25C413-.48,434.85,19.37,436.3,46.82,437,60.9,436.43,75.05,436.43,86.67Z"/><path d="M277.9,911.21H496.13c-1.33,39.63-17.65,70.45-50.41,91-38.16,24-78,24.18-116.46.61C295.88,982.37,279.25,951.37,277.9,911.21Z"/></g></g></svg>