<svg xmlns="http://www.w3.org/2000/svg" viewBox="0 0 242.19 258.98"><title>Ativo 43</title><g id="Camada_2" data-name="Camada 2"><g id="Camada_1-2" data-name="Camada 1"><path d="M226.13,259c-3.18-37.24-21.59-64.74-53.43-83.67-.57-.34-1.19-.6-1.74-1-6.28-4.13-12.1-4.77-19.77-1.76-21.29,8.33-42.92,7.3-64-1.63a9.13,9.13,0,0,0-8.39.07c-36.75,18-58,46.82-61.86,88H0c1.65-8.61,2.62-17.41,5.08-25.77,9.38-31.9,29-55.86,57.81-72.33.72-.41,1.45-.81,2.14-1.26a3.53,3.53,0,0,0,.65-.73C19.47,121.31,25.42,56.85,60,24.72c35.7-33.18,88.59-32.95,123.72.62,34.48,33,39.07,96.3-5.71,133,9.13,7.05,19.05,13.51,27.52,21.5,21.29,20.09,33.45,45,36.58,74.24a40.42,40.42,0,0,1,0,4.92ZM121.3,161.79a72.9,72.9,0,0,0,73-72.67c.09-40.06-32.78-73-72.79-73a72.83,72.83,0,0,0-.22,145.65Z"/></g></g></svg>