<svg xmlns="http://www.w3.org/2000/svg" viewBox="0 0 497.53 827.21"><defs><style>.cls-1{fill:#0089ff;}</style></defs><title>Ativo 44</title><g id="Camada_2" data-name="Camada 2"><g id="Camada_1-2" data-name="Camada 1"><path class="cls-1" d="M287.44,362.08c-8.42,36.6-16.51,72.2-24.91,107.73a12.79,12.79,0,0,0,1.81,10.65Q303,543,341.38,605.71q44.53,72.64,88.91,145.41c6.56,10.76,11,22.36,11.39,35.2.51,15.2-5.37,26.77-19.1,33.91-14.56,7.57-28.89,8.34-42.8-1.59-13.1-9.36-22.61-22-31.28-35.22q-46.35-71-92.45-142.09-47.34-73.26-94.23-146.82c-9.72-15.18-17.45-31.4-17.21-49.73.15-11.84,2.34-23.76,4.67-35.44,7.18-36,14.86-71.85,22.33-107.78a35.36,35.36,0,0,0,.31-3.74c-7.62,5.82-14.72,11.2-21.78,16.63-14,10.72-27.87,21.56-41.95,32.15a13.44,13.44,0,0,0-5.47,9.39c-5.87,34.88-12,69.72-18.09,104.57-1.46,8.34-3.13,16.64-4.5,25-2.3,14-13.16,23.1-28,23.14-14.64,0-27.69-9.46-28.79-23.05-.84-10.26.58-20.83,1.95-31.13,2.89-21.73,6.43-43.36,9.67-65,3.38-22.68,6.47-45.4,10.2-68,1.53-9.26,6.64-16.87,14-22.94q24.2-20,48.25-40.22c19-16.08,37.95-32.35,57-48.47C179.22,197.24,196,190,215.91,191c12.23.6,24.51.27,36.76.45,17,.24,29.16,9,37.1,23.11,8,14.3,15,29.2,22,44.07,15.63,33.4,30.92,67,46.48,100.37a10,10,0,0,0,4.47,4.23q57.84,28.55,115.8,56.87c14.29,7,22.52,25,17.57,38.85-3.27,9.19-9.93,14.44-19.45,15.69-12.26,1.6-23.76-1.62-34.75-6.72q-51.75-24-103.4-48.14c-11.83-5.51-21.71-13-28.47-24.68-6-10.34-13.24-19.91-20-29.81C289.44,364.35,288.67,363.57,287.44,362.08Z"/><path class="cls-1" d="M131.42,523.28l28.32,38.88c10.28,14.09,20.5,28.23,30.9,42.24a6.61,6.61,0,0,1,1.06,7.17c-5.8,15.37-11.41,30.81-17,46.24-6.22,17.12-16.83,31.5-27.73,45.83-22.53,29.63-44.46,59.73-67,89.34-8.45,11.08-17.6,21.75-29.76,29.15-11.74,7.15-23.23,6.74-34.55-1.11C4.09,813-1.76,802.37.46,788.19c2.15-13.72,9.89-24.84,17.54-35.94,26-37.75,52.29-75.36,78-113.36,4-6,5.85-13.6,7.9-20.69,8.93-30.91,17.56-61.92,26.33-92.88A10.27,10.27,0,0,1,131.42,523.28Z"/><path class="cls-1" d="M291.23,159.32c-45.05-1-80.26-36.95-79.35-81C212.81,33.58,249.71-1.19,295,0c42.61,1.15,77.54,38.25,76.54,81.3C370.49,124.77,334,160.27,291.23,159.32Z"/></g></g></svg>