<svg xmlns="http://www.w3.org/2000/svg" viewBox="0 0 383.33 383.24"><title>Ativo 45</title><g id="Camada_2" data-name="Camada 2"><g id="Camada_1-2" data-name="Camada 1"><path d="M383.33,194.64c-.38.76-.77,1.52-1.14,2.29a13,13,0,0,1-14.34,7.66c-6.32-1.18-10.68-5.93-10.83-12.45-.37-16.78-2.16-33.4-7.57-49.32C329.42,83.92,289.34,46.15,228.9,31c-12.32-3.09-25.39-3.24-38.12-4.6-6.08-.64-10.78-4.56-12-10.51a13,13,0,0,1,6.92-14.38c1-.51,2-1,3-1.46h15c6.4.84,12.83,1.46,19.19,2.54,36.4,6.18,68.59,21.36,96.08,46,33,29.62,53.68,66.33,61.46,110.1,1.24,7,2,14,3,21Z"/><path d="M247.11,271.29a14.05,14.05,0,0,0,11.19-4.49Q272,253,285.82,239.27c6.27-6.25,11.93-6.89,19.42-2.08q35.08,22.51,70.14,45.1c7.54,4.86,9.34,11.17,5.53,19.28q-17.1,36.33-34.25,72.66c-3.35,7.08-8.16,9.71-15.54,8.85a337.84,337.84,0,0,1-142-49.88C111.6,284.54,53.68,219,20,133.12A323.17,323.17,0,0,1,.15,52.05C-.69,44.87,1.93,40,8.45,36.91q37-17.46,74-34.85c7.06-3.32,13.67-1.52,17.9,5q23.25,36,46.37,72c4,6.22,3.25,12.37-2,17.67-8.86,9-17.61,18-26.79,26.66-5.34,5-6.71,10.56-5.4,17.54,4.91,26.11,16.59,48.95,33.29,69.33,18.79,22.94,41.44,40.94,69,52.33A119.81,119.81,0,0,0,247.11,271.29Z"/><path d="M317.36,185.81c-.19,3,0,6-.63,8.9a13,13,0,0,1-25.58-.65c-.95-6.9-1-13.93-2.19-20.78-6.53-38.86-39.53-72.09-78.33-78.86-6.24-1.09-12.62-1.33-18.94-1.86-10.29-.86-16.32-10.51-11.82-19.19a12.76,12.76,0,0,1,12.53-7.29c51.81,2.11,89.62,26.23,113,72.55C312.78,153.37,316.29,169.3,317.36,185.81Z"/></g></g></svg>