<svg xmlns="http://www.w3.org/2000/svg" viewBox="0 0 300.84 188.9"><defs><style>.cls-1{fill:#0089ff;}</style></defs><title>Ativo 22</title><g id="Camada_2" data-name="Camada 2"><g id="Camada_1-2" data-name="Camada 1"><circle class="cls-1" cx="205.1" cy="143.67" r="22.03"/><path class="cls-1" d="M150.77,68.37a22,22,0,1,0-22-22A22.05,22.05,0,0,0,150.77,68.37Z"/><path class="cls-1" d="M291.3,49.45a45.48,45.48,0,0,1,9.54,1V19.7A19.7,19.7,0,0,0,281.14,0H19.7A19.7,19.7,0,0,0,0,19.7V50.58a45,45,0,1,1,0,87.74V169.2a19.7,19.7,0,0,0,19.7,19.7H281.14a19.7,19.7,0,0,0,19.7-19.7V138.43a45.48,45.48,0,0,1-9.54,1,45,45,0,0,1,0-90ZM150.77,14.31a32,32,0,1,1-32,32A32.06,32.06,0,0,1,150.77,14.31ZM91.22,175.7h-10v-8.5h10Zm0-24.55h-10v-16h10Zm0-32.08h-10V103h10Zm0-32.09h-10v-16h10Zm0-32.09h-10v-16h10Zm0-32.08h-10v-8.5h10ZM205.1,175.7a32,32,0,1,1,32-32A32.07,32.07,0,0,1,205.1,175.7Zm-83.34-17.13-7.07-7.07L235.85,30.33l7.07,7.07Z"/></g></g></svg>