<svg xmlns="http://www.w3.org/2000/svg" viewBox="0 0 275.19 281.36"><defs><style>.cls-1{fill:#fff;}</style></defs><title>Ativo 40</title><g id="Camada_2" data-name="Camada 2"><g id="Camada_1-2" data-name="Camada 1"><path class="cls-1" d="M176.58,0c32.07,9.64,63.55,19.05,94.95,28.7,1.52.47,2.55,3.08,3.43,4.87.46.94.09,2.28.09,3.44q0,103.67.13,207.33c0,5.51-1.34,7.95-6.91,9.56-30.44,8.82-60.74,18.13-91.69,27.46Z"/><path class="cls-1" d="M61.9,167.81H21.4C7.55,167.79-.23,161.89,0,151.6c.22-10,7.71-15.4,21.35-15.41q37.91,0,75.8,0h9V107.46l44.49,44.8-44.14,44V168.5H84.25v65.68c2.49.13,4.94.37,7.38.37q28.17,0,56.33,0a54.25,54.25,0,0,1,5.56.11c6.75.71,10.91,5.24,10.58,11.4-.32,5.93-4.48,10.05-11,10.16-12,.21-24.11.08-36.16.09H78c-13.14,0-16.06-2.87-16.07-15.76q0-32,0-64Z"/><path class="cls-1" d="M83.72,47.16c0,18,0,35.36,0,52.69,0,2.32.13,4.65-.1,7-.7,6.83-5.12,11.08-11.18,10.93S62.1,113,62,106.17c-.2-11.13-.07-22.26-.08-33.38,0-11.59-.07-23.18,0-34.77.07-9,3.79-12.93,12.53-13q38.58-.15,77.16,0c7.89,0,12.52,4.21,12.5,10.84s-4.67,10.77-12.62,10.82c-20.39.14-40.78,0-61.17.07C88.5,46.79,86.68,47,83.72,47.16Z"/></g></g></svg>