<svg xmlns="http://www.w3.org/2000/svg" viewBox="0 0 347.45 449.24"><title>Ativo 46</title><g id="Camada_2" data-name="Camada 2"><g id="Camada_1-2" data-name="Camada 1"><path d="M347.28,177.84c0,24.28.43,48.57-.08,72.85-1.31,61.93-28.72,110.89-75.57,150-25.1,20.95-53.71,35.51-84.41,46.22a40.24,40.24,0,0,1-27,0C115.39,431.43,76,407.53,45.34,370.69,15.66,335,0,294,0,247.34Q0,170.75,0,94.16C0,76.52,8.07,66.5,25.42,63c34.31-6.88,67.32-17.42,97.69-35.08,11-6.42,21.55-13.79,32.07-21.07,12.9-8.92,24.33-9.4,36.77,0,38.16,28.87,81.19,46.35,127.83,55.78a47.48,47.48,0,0,1,16.44,6.52c8.42,5.57,11.15,14.45,11.13,24.34q-.09,42.15,0,84.32Zm-20-.08h.05V96.93c0-11.58-.75-12.68-12.07-14.9C266.25,72.43,221.23,53.61,181,23.68c-6.43-4.79-8-4.53-14.67-.08-10.48,7-20.75,14.5-31.67,20.8C102,63.26,66.72,75.49,29.66,82.57,21.52,84.12,20,86.19,20,94.39q0,76.85,0,153.68c.05,31.53,8.13,60.95,24.81,87.68,28.85,46.23,71.17,75,122,92.15a24,24,0,0,0,14.1-.13c29.23-9.48,56-23.71,79.52-43.66,41.16-35,65.67-78.51,66.78-133.5C327.73,226.34,327.32,202.05,327.32,177.76Z"/><path d="M173.87,329.68C113.56,329.91,64.24,280.81,63.7,220c-.54-59.91,49.24-109.82,109.77-110,60.28-.23,110,49.27,110.18,109.65S234.39,329.45,173.87,329.68Zm-.06-199.78c-49.4-.15-90,40.17-90.16,89.63s40,89.74,89.64,90.18c49.4.44,90.29-40.23,90.41-89.91C263.81,170.5,223.38,130.06,173.81,129.9Z"/><path d="M164.25,209.9c6.13-6.29,11.5-11.92,17-17.42,4.81-4.83,9.56-9.74,14.68-14.23,8.16-7.17,19.2-6.76,27.07.71q5.07,4.81,9.88,9.87c9.08,9.54,9.14,20.12-.1,29.57-10.91,11.18-22.06,22.14-33.11,33.19-6.94,6.93-13.81,13.93-20.83,20.78-8.14,7.93-19.62,8.4-27.8.54q-19.41-18.65-38.1-38.06c-7.14-7.41-6.86-18.69.11-26.28,3.83-4.15,7.84-8.16,12-11.94,8.36-7.56,19.21-7.31,27.31.6C156.29,201.05,159.86,205.19,164.25,209.9Zm-.56,47.7,54.92-54.4L208.75,193c-1.57,1.5-2.9,2.71-4.16,4q-15,15.27-30.07,30.57c-7.57,7.68-12.19,7.72-19.75.13-5.47-5.49-10.85-11.07-16.57-16.92L128.5,221Z"/></g></g></svg>