<svg xmlns="http://www.w3.org/2000/svg" viewBox="0 0 257.76 286.41"><title>Ativo 18</title><g id="Camada_2" data-name="Camada 2"><g id="Camada_1-2" data-name="Camada 1"><path d="M205.52,79.67H62.4a8.5,8.5,0,1,1,0-17H205.52a8.5,8.5,0,0,1,0,17Z"/><path d="M205.52,134.7H62.4a8.5,8.5,0,1,1,0-17H205.52a8.5,8.5,0,1,1,0,17Z"/><path d="M205.52,189.74H62.4a8.5,8.5,0,0,1,0-17H205.52a8.5,8.5,0,0,1,0,17Z"/><path d="M210.57,0H47.19C10.14,0,0,30.14,0,67.19V286.41H7.5l9.5-8,31.63-26.8,40.13,34,40.12-34,40.13,34,40.12-34,31.63,26.8,9.49,8h7.51V67.19C257.76,30.14,247.62,0,210.57,0Zm30.19,256.09-31.63-26.8-40.12,34-40.13-34-40.12,34-40.13-34L17,256.09V67.19C17,39.52,19.51,17,47.19,17H210.57c27.67,0,30.19,22.52,30.19,50.19Z"/></g></g></svg>