<svg xmlns="http://www.w3.org/2000/svg" viewBox="0 0 390.24 347.63"><defs><style>.cls-1{fill:currentColor;}</style></defs><title>Ativo 20</title><g id="Camada_2" data-name="Camada 2"><g id="Camada_1-2" data-name="Camada 1"><path class="cls-1" d="M390.18,179.85a59.33,59.33,0,0,1,0-6.93,17.3,17.3,0,0,0-17.58-17.58c-2.09.07-4.19,0-6.49,0v-3.56c0-23.1-.17-46.2.09-69.3a31,31,0,0,0-1.61-10.28h0a35.57,35.57,0,0,0-14.1-19.42,34.18,34.18,0,0,0-8.39-4.07l0,0-.6-.13A34.64,34.64,0,0,0,337,47.47a18.54,18.54,0,0,0-3.44-.45h-1.16c-13.2-.23-26.41-.25-39.61-.32-6.5,0-6.5,0-6.5-6.6,0-3.6,0-3.61,3.73-3.61,9.78,0,19.55,0,29.32,0,4.52,0,5.87-1.48,5.88-6q0-12.39,0-24.79C325.19,1.27,324,0,319.48,0h-49c-7.56,0-15.11,0-22.66,0-2.21,0-4.22.84-4.53,2.85-.41,2.67-1.9,2.49-3.75,2.49H144.23C142.58.37,142.1,0,137.13,0H67.56c-5,0-6.16,1.1-6.16,6q0,12,0,24c0,5.05,1.36,6.4,6.52,6.42,7.37,0,14.75,0,22.12,0,7,0,7,0,7,7.08,0,2.37-.59,3.21-3.14,3.19-12.52-.13-25,0-37.58-.07a31,31,0,0,0-18.67,5.75C28.58,59,24.4,68,24.41,79.07q0,34.52,0,69c0,2.28.55,5.23-.62,6.64-1,1.16-4.12.54-6.3.61-6.64.22-12,3.05-14.82,9C-1,172-.49,180.27,2,188.2A11.34,11.34,0,0,0,8.39,195c2.87,1.88,7,1.71,13.76,4.38,2.12,1.95,2.31,4.75,2.3,7.79-.08,25.86,0,51.71,0,77.57a40.25,40.25,0,0,0,.23,4.52,21.1,21.1,0,0,0,20,18.43c2,0,4,.13,6,.22a14.68,14.68,0,0,1,9,4.12h0a7.83,7.83,0,0,0,.83.9,14.54,14.54,0,0,1,3.23,7.65c0,4.88.18,9.77-.08,14.65-.33,6,4.74,12.21,11.35,12.27,11.11.09,22.22.22,33.31-.05,6.19-.15,10-4.57,10-10.79,0-7.55.13-15.11-.12-22.65a11.37,11.37,0,0,1,11.48-11.53c43.62.12,87.25,0,130.87.07,6.64,0,11.17,4.54,11.19,11.15,0,7.38.29,14.77-.14,22.12a11.06,11.06,0,0,0,11.66,11.8c10.21-.18,20.43,0,30.65-.05,8.09-.05,12.84-4.82,12.91-12.94,0-4.44-.29-8.89,0-13.32a16.38,16.38,0,0,1,1.84-6.8c2.55-4.59,6.76-6.69,12-6.84,3.53-.11,7.3.19,10.55-.91,9.77-3.34,14.87-11.19,14.87-21.7,0-26.56,0-53.12.11-79.69,0-1.65.42-3.8,1.5-4.83,1.53-1.46,3.82-2.88,5.83-2.94C382.7,197.3,391,190.17,390.18,179.85ZM127.35,36.47c3.29,0,6.57,0,9.86,0,4.5,0,5.57-.83,6.94-5.41h3.28q46,0,91.93,0c1.95,0,3.44-.14,3.95,2.58.45,2.35,3,2.78,5.19,2.82,3.73.07,7.46.11,11.19,0,2.12-.07,3,.57,3,2.84,0,7.4.11,7.41-7.37,7.4-19.27,0-38.55-.1-57.82-.1q-36.6,0-73.21.09c-3.49,0-3.54,0-3.49-3.52C120.88,35.52,119.6,36.55,127.35,36.47ZM122,246.2c-.28,5,.27,10.13-2.15,14.86-3.46,6.72-6.9,10.42-14.75,10.17-11.59-.37-23.22-.43-34.81,0-7.43.29-11.47-3.58-14.41-9.44-3.34-6.65-3.19-13.74-1.81-20.78,1.1-5.69,6.91-9.86,12.54-10,7-.19,14-.05,21.06-.05h0c6.39,0,12.8.2,19.18-.05A14.35,14.35,0,0,1,122,246.2Zm210.5,14.42a36.78,36.78,0,0,1-5.35,7.79c-1.86,2.1-4.57,2.78-7.48,2.76-4.82-.05-9.64-.06-14.46-.06h0c-26.26.21-35.05-4.19-36.85-9.39-.47-1.36-.42-2.65-1.29-3.05-1.55-4.93-1.53-10.32-1-15.81A13.62,13.62,0,0,1,279.33,231q20.91-.12,41.82,0c6.7,0,13.07,6.11,13.17,12.39C334.4,249.21,335.28,255.17,332.53,260.62Zm-61.65-73.73a24.65,24.65,0,0,1,43.9-1.07c2.36,4.16.45,7.27-4.52,7.37-5.76.12-11.52,0-17.29,0-5.41,0-10.82,0-16.23,0a12.11,12.11,0,0,1-3.39-.46C270.57,191.92,269.6,189.5,270.88,186.89Zm68.05,5.43a63.11,63.11,0,0,1-7.61.62c-2-.06-3.17-1.36-3.75-3.49-3.37-12.44-11.05-21.21-23.26-25.4a35.16,35.16,0,0,0-42,16.26,49.74,49.74,0,0,0-3.45,8.81c-.95,2.82-2.36,4-5.74,4.1-3,.11-6.05,0-9,.33a8.5,8.5,0,0,0-7.46,8c-.3,4.61-2.41,6.73-7,6.73-11.1,0-22.21-.09-33.31-.08q-62,0-123.93.15a33.88,33.88,0,0,1-17-4,36.18,36.18,0,0,1-5.1-3.65l0-.05-.69-.61a33.16,33.16,0,0,1-2.5-2.64,28.48,28.48,0,0,1-2.08-2.76c-.27-.43-.52-.84-.74-1.23-3.85-6.77-4.06-14.81-4.3-30.62v-6.92h0q0-31.35,0-62.7c0-14.23,8.52-25.89,22.35-30A31.23,31.23,0,0,1,71,62.35q123.53-.08,247.05,0c2.1,0,4.2,0,6.29.19.67.11,1.35.23,2,.39.48.39.92,1.11,1.49,1.32,3,1.14,6.09,2.13,9.14,3.17h0c.39.26.78.52,1.16.8a30.4,30.4,0,0,1,2.6,2.16,10.36,10.36,0,0,0,1.16,1.13,31.75,31.75,0,0,1,4.24,5.38l.06.1.48.81a25.12,25.12,0,0,1,3.53,12.68c.09,29.41,0,58.81.12,88.21C350.35,184.42,345.41,191.71,338.93,192.32Zm28.51,2.78a23.48,23.48,0,0,0-2.22,1.68,11.57,11.57,0,0,0-1.28,2.13c-.44-.74-.87-1.48-1-1.65,0-3.42,1.55-4.82,4.23-4.49.53.07,1,.67,1.48,1A15.12,15.12,0,0,1,367.44,195.1Z"/></g></g></svg>